<svg height="496pt" viewBox="0 0 496 496" width="496pt" xmlns="http://www.w3.org/2000/svg"><path d="m104 416c0 13.253906-10.746094 24-24 24s-24-10.746094-24-24 10.746094-24 24-24 24 10.746094 24 24zm0 0" fill="#8d5655"/><path d="m440 416c0 13.253906-10.746094 24-24 24s-24-10.746094-24-24 10.746094-24 24-24 24 10.746094 24 24zm0 0" fill="#cb9e78"/><path d="m440 80c0 13.253906-10.746094 24-24 24s-24-10.746094-24-24 10.746094-24 24-24 24 10.746094 24 24zm0 0" fill="#eea273"/><path d="m288 248c0 22.089844-17.910156 40-40 40s-40-17.910156-40-40 17.910156-40 40-40 40 17.910156 40 40zm0 0" fill="#70b48f"/><path d="m104 80c0 13.253906-10.746094 24-24 24s-24-10.746094-24-24 10.746094-24 24-24 24 10.746094 24 24zm0 0" fill="#dc6068"/><path d="m281.960938 159.289062c-68.097657-59.6875-140.503907-93.671874-180.144532-84.695312l-3.550781-15.59375c45.101563-10.335938 121.351563 24.367188 194.246094 88.257812zm0 0"/><path d="m380.777344 438.792969c-53.289063 0-134.664063-45.601563-206.320313-117.25-79.753906-79.75-127.234375-171.566407-115.457031-223.277344l15.601562 3.542969c-10.449218 45.894531 36.308594 133.542968 111.175782 208.414062 74.878906 74.875 162.558594 121.632813 208.414062 111.175782l3.550782 15.59375c-5.253907 1.207031-10.933594 1.800781-16.964844 1.800781zm0 0"/><path d="m437 397.742188-15.601562-3.542969c7.195312-31.574219-13.476563-85.871094-53.933594-141.703125l12.949218-9.390625c43.746094 60.351562 64.898438 118.160156 56.585938 154.636719zm0 0"/><path d="m348.734375 292.503906-12.03125-10.542968c59.679687-68.089844 93.722656-140.488282 84.695313-180.152344l15.601562-3.542969c10.273438 45.117187-24.375 121.359375-88.265625 194.238281zm0 0"/><path d="m59 397.734375c-11.769531-51.703125 35.710938-143.511719 115.464844-223.269531 79.75-79.753906 171.550781-127.304688 223.269531-115.464844l-3.542969 15.59375c-45.886718-10.417969-133.535156 36.316406-208.40625 111.175781-74.875 74.871094-121.632812 162.519531-111.183594 208.414063zm0 0"/><path d="m115.488281 438.816406c-6.152343 0-11.914062-.601562-17.222656-1.808594l3.542969-15.609374c18.269531 4.167968 43.824218-.6875 73.894531-13.992188l6.480469 14.625c-25.085938 11.113281-47.769532 16.785156-66.695313 16.785156zm0 0"/><path d="m248 496c-52.40625 0-94.648438-85.632812-102.703125-208.246094l15.96875-1.050781c7.238281 110.191406 44.535156 193.296875 86.734375 193.296875 42.496094 0 88-93.222656 88-232s-45.503906-232-88-232c-22.40625 0-44.855469 24.847656-61.601562 68.167969l-14.917969-5.769531c19.527343-50.558594 46.703125-78.398438 76.519531-78.398438 58.320312 0 104 108.9375 104 248s-45.679688 248-104 248zm0 0"/><path d="m208.238281 350.710938c-122.605469-8.070313-208.238281-50.304688-208.238281-102.710938 0-58.320312 108.9375-104 248-104s248 45.679688 248 104c0 29.816406-27.839844 56.984375-78.398438 76.511719l-5.769531-14.917969c43.320313-16.738281 68.167969-39.1875 68.167969-61.59375 0-42.496094-93.222656-88-232-88s-232 45.503906-232 88c0 42.199219 83.097656 79.496094 193.289062 86.742188zm0 0"/><path d="m248 296c-26.472656 0-48-21.527344-48-48s21.527344-48 48-48 48 21.527344 48 48-21.527344 48-48 48zm0-80c-17.648438 0-32 14.351562-32 32s14.351562 32 32 32 32-14.351562 32-32-14.351562-32-32-32zm0 0"/><path d="m80 112c-17.648438 0-32-14.351562-32-32s14.351562-32 32-32 32 14.351562 32 32-14.351562 32-32 32zm0-48c-8.824219 0-16 7.175781-16 16s7.175781 16 16 16 16-7.175781 16-16-7.175781-16-16-16zm0 0"/><path d="m416 112c-17.648438 0-32-14.351562-32-32s14.351562-32 32-32 32 14.351562 32 32-14.351562 32-32 32zm0-48c-8.824219 0-16 7.175781-16 16s7.175781 16 16 16 16-7.175781 16-16-7.175781-16-16-16zm0 0"/><path d="m416 448c-17.648438 0-32-14.351562-32-32s14.351562-32 32-32 32 14.351562 32 32-14.351562 32-32 32zm0-48c-8.824219 0-16 7.175781-16 16s7.175781 16 16 16 16-7.175781 16-16-7.175781-16-16-16zm0 0"/><path d="m80 448c-17.648438 0-32-14.351562-32-32s14.351562-32 32-32 32 14.351562 32 32-14.351562 32-32 32zm0-48c-8.824219 0-16 7.175781-16 16s7.175781 16 16 16 16-7.175781 16-16-7.175781-16-16-16zm0 0"/></svg>